<?xml version="1.0" encoding="utf-8"?>
<!-- Generator: Adobe Illustrator 21.1.0, SVG Export Plug-In . SVG Version: 6.00 Build 0)  -->
<svg version="1.1" id="Capa_1" xmlns="http://www.w3.org/2000/svg" xmlns:xlink="http://www.w3.org/1999/xlink" x="0px" y="0px"
	 viewBox="0 0 1152 1245" style="enable-background:new 0 0 1152 1245;" xml:space="preserve">
<style type="text/css">
	.st0{fill:#CC1517;}
</style>
<title>Lotería Nacional</title>
<g>
	<path class="st0" d="M1080.7515,1109.9128H942.9973v-72.634h65.1202V173.5424H146.8857v863.7365h60.1109v72.634H71.747V100.9083
		h1009.0045V1109.9128z"/>
	<path class="st0" d="M577.5015,792.0048L302.172,949.796l277.834,160.2957L855.3354,949.796L577.5015,792.0048z M660.1541,959.6356
		c-17.5325,10.0184-40.074,15.0278-60.1108,12.5231l-57.6063-2.5046l52.597,30.0554l-37.5693,20.037l-115.2126-65.1202
		l25.0462-15.0278c0,0,115.2126,2.5046,125.231,2.5046c7.5139,0,17.5323,0,25.0461-5.0092c7.5138-5.0092,10.0184-12.5231,0-17.5323
		c-12.5231-5.0092-25.0462-5.0092-37.5693,0l-37.5693-20.037c35.0646-17.5323,75.1386-17.5323,107.6986,0
		C692.7141,922.0662,680.191,949.6171,660.1541,959.6356L660.1541,959.6356z"/>
	<path class="st0" d="M559.9692,436.3487l-277.834,160.2957v322.9172l277.834-160.2958V436.3487z M407.1873,771.9679V639.223
		l-22.5416,12.5231v-42.5786l62.6155-37.5693v175.3235L407.1873,771.9679z"/>
	<path class="st0" d="M872.8678,596.6444L595.0339,436.3487v325.6007L872.868,922.2451V596.6444H872.8678z M767.8527,784.491
		l-27.5509-65.1201l-30.0555,30.0554l-47.5877-27.5508l52.597-57.6063l-52.597-115.2126l50.0924,30.0554l25.0462,57.6063
		l25.0462-30.0554l50.0924,30.0554l-50.0924,57.6063l52.5971,117.7172L767.8527,784.491z"/>
</g>
</svg>
