<?xml version="1.0" encoding="utf-8"?>
<!-- Generator: Adobe Illustrator 21.1.0, SVG Export Plug-In . SVG Version: 6.00 Build 0)  -->
<svg version="1.1" id="Capa_1" xmlns="http://www.w3.org/2000/svg" xmlns:xlink="http://www.w3.org/1999/xlink" x="0px" y="0px"
	 viewBox="0 0 1152 1245" style="enable-background:new 0 0 1152 1245;" xml:space="preserve">
<style type="text/css">
	.st0{fill:#098342;}
</style>
<title>Lotería Nacional</title>
<g>
	<g>
		<path class="st0" d="M888.8335,717.1095h-0.1788c0,0-162.1834-10.9077-312.2076-10.9077s-309.1679,9.1195-309.1679,9.1195h-3.9339
			c-2.1458,15.0203-3.3975,30.577-3.3975,46.1337c0,15.7355,1.0728,31.1135,3.3975,46.3126
			c0.8941,0,162.5412,10.9076,312.2078,10.9076c150.0242,0,309.1679-9.1195,309.1679-9.1195h3.755
			c2.3246-15.7355,3.5763-31.6499,3.5763-48.1007C891.8732,746.4349,890.8004,731.5933,888.8335,717.1095z"/>
		<path class="st0" d="M824.2818,956.7191c23.4245-29.6829,41.4846-63.6575,53.1074-100.493
			c-0.5366,0-181.4953,10.9075-302.0154,10.9075c-120.6989,0-300.9425-11.4441-301.3001-11.4441
			c11.6228,37.0143,29.8618,71.1676,53.2863,101.0294h1.0728c0,0,85.115,26.4643,246.941,26.4643
			C737.1999,983.1833,824.2818,956.7191,824.2818,956.7191z"/>
		<path class="st0" d="M394.4151,503.6066c0,0,101.5658-12.5169,182.0318-12.5169s182.0318,13.2322,182.0318,13.2322l2.6822,1.0729
			c-52.0345-37.7296-116.0497-59.9024-185.0715-59.9024c-69.2007,0-133.2158,22.1728-185.2504,59.9024L394.4151,503.6066z"/>
		<path class="st0" d="M575.374,1032.5359c-80.4659,0-182.0317-13.2322-182.0317-13.2322
			c51.4981,36.4778,114.4404,57.9355,182.5681,57.9355c67.5913,0,130.1759-21.2788,181.4954-57.2202
			C756.5118,1020.1977,655.4824,1032.5359,575.374,1032.5359z"/>
		<path class="st0" d="M274.2527,668.4724c0,0,181.3165-10.9077,302.0154-10.9077s301.3,11.444,301.3,11.444l0.5366,0.1788
			c-11.4441-37.5507-29.6829-72.0616-53.1074-102.2811h-1.7881c0,0-85.115-26.4643-246.9409-26.4643
			s-248.9079,26.4643-248.9079,26.4643h-0.7153c-23.4245,30.0406-41.6634,64.5516-53.1075,101.9235L274.2527,668.4724z"/>
	</g>
	<g>
		<path class="st0" d="M1080.2529,1100.3059h-137.686v-72.598h65.088V164.3981H146.8485v863.3098h60.0812v72.598H71.747V91.8
			h1008.5059V1100.3059z"/>
	</g>
</g>
</svg>
