<?xml version="1.0" encoding="utf-8"?>
<!-- Generator: Adobe Illustrator 21.1.0, SVG Export Plug-In . SVG Version: 6.00 Build 0)  -->
<svg version="1.1" id="Capa_1" xmlns="http://www.w3.org/2000/svg" xmlns:xlink="http://www.w3.org/1999/xlink" x="0px" y="0px"
	 viewBox="0 0 1152 1245" style="enable-background:new 0 0 1152 1245;" xml:space="preserve">
<style type="text/css">
	.st0{fill:#043F65;}
</style>
<title>Lotería Nacional</title>
<g>
	<path class="st0" d="M576.0704,423.3827c-173.1768,0-313.6144,140.4376-313.6144,313.6143s140.4377,313.6143,313.6144,313.6143
		s313.6144-140.4377,313.6144-313.6143S749.2468,423.3827,576.0704,423.3827z M631.7087,490.1129
		c83.5469,0,151.1718,67.6247,151.1718,151.1718s-67.6249,151.1718-151.1718,151.1718s-151.1718-67.6248-151.1718-151.1718
		S548.1616,490.1129,631.7087,490.1129z M578.2171,981.0186c-135.9651,0-250.4621-119.864-250.4621-251.1777
		c0-81.9368,48.8402-155.1075,118.6118-198.4017c-8.0506,11.2708-16.28,24.1517-19.1424,29.5187
		c-11.2709,21.2892-21.2893,52.9548-21.2893,99.2903c0,102.6895,88.0194,214.3239,202.8743,214.3239
		c89.9875,0,185.6998-69.7715,215.0395-152.4241c0.3577,7.1561,0.5368,14.3121,0.5368,21.826
		C824.3855,876.0034,714.1822,981.0186,578.2171,981.0186z"/>
	<g>
		<g>
			<path class="st0" d="M1080.7513,1076.552H942.9973v-72.6339h65.1202V140.0027H146.8857v863.7364h60.1108v72.6339H71.747V67.3687
				h1009.0043V1076.552z"/>
		</g>
	</g>
</g>
</svg>
